# MagicaVoxel @ Ephtracy

# group
o 

# material
mtllib Hall.mtl
usemtl palette

# normals
vn -1 0 0
vn 1 0 0
vn 0 0 1
vn 0 0 -1
vn 0 -1 0
vn 0 1 0

# texcoords
vt 0.673828 0.5
vt 0.982422 0.5

# verts
v -0.8 0 0.8
v -0.8 0 -0.8
v -0.8 0.1 0.3
v -0.8 0.1 -0.3
v -0.8 0.5 0.3
v -0.8 0.5 0.2
v -0.8 0.5 -0.2
v -0.8 0.5 -0.3
v -0.8 0.6 0.2
v -0.8 0.6 -0.2
v -0.8 1.6 0.8
v -0.8 1.6 -0.8
v 0.8 0 0.8
v 0.8 0 -0.8
v 0.8 0.1 0.3
v 0.8 0.1 -0.3
v 0.8 0.5 0.3
v 0.8 0.5 0.2
v 0.8 0.5 -0.2
v 0.8 0.5 -0.3
v 0.8 0.6 0.2
v 0.8 0.6 -0.2
v 0.8 1.6 0.8
v 0.8 1.6 -0.8
v -0.8 0 0.8
v -0.8 1.6 0.8
v 0.8 0 0.8
v 0.8 1.6 0.8
v -0.8 0.5 -0.2
v -0.8 0.6 -0.2
v -0.7 0.5 -0.2
v -0.7 0.6 -0.2
v 0.6 0.5 -0.2
v 0.6 0.6 -0.2
v 0.8 0.5 -0.2
v 0.8 0.6 -0.2
v -0.8 0.1 -0.3
v -0.8 0.5 -0.3
v -0.7 0.1 -0.3
v -0.7 0.5 -0.3
v 0.6 0.1 -0.3
v 0.6 0.5 -0.3
v 0.8 0.1 -0.3
v 0.8 0.5 -0.3
v -0.8 0.1 0.3
v -0.8 0.5 0.3
v -0.7 0.1 0.3
v -0.7 0.5 0.3
v 0.6 0.1 0.3
v 0.6 0.5 0.3
v 0.8 0.1 0.3
v 0.8 0.5 0.3
v -0.8 0.5 0.2
v -0.8 0.6 0.2
v -0.7 0.5 0.2
v -0.7 0.6 0.2
v 0.6 0.5 0.2
v 0.6 0.6 0.2
v 0.8 0.5 0.2
v 0.8 0.6 0.2
v -0.8 0 -0.8
v -0.8 1.6 -0.8
v 0.8 0 -0.8
v 0.8 1.6 -0.8
v -0.8 0 0.8
v 0.8 0 0.8
v -0.8 0 -0.8
v 0.8 0 -0.8
v -0.8 0.5 0.3
v -0.7 0.5 0.3
v 0.6 0.5 0.3
v 0.8 0.5 0.3
v -0.8 0.5 0.2
v -0.7 0.5 0.2
v 0.6 0.5 0.2
v 0.8 0.5 0.2
v -0.8 0.5 -0.2
v -0.7 0.5 -0.2
v 0.6 0.5 -0.2
v 0.8 0.5 -0.2
v -0.8 0.5 -0.3
v -0.7 0.5 -0.3
v 0.6 0.5 -0.3
v 0.8 0.5 -0.3
v -0.8 0.6 0.2
v -0.7 0.6 0.2
v 0.6 0.6 0.2
v 0.8 0.6 0.2
v -0.8 0.6 -0.2
v -0.7 0.6 -0.2
v 0.6 0.6 -0.2
v 0.8 0.6 -0.2
v -0.8 0.1 0.3
v -0.7 0.1 0.3
v 0.6 0.1 0.3
v 0.8 0.1 0.3
v -0.8 0.1 -0.3
v -0.7 0.1 -0.3
v 0.6 0.1 -0.3
v 0.8 0.1 -0.3
v -0.8 1.6 0.8
v 0.8 1.6 0.8
v -0.8 1.6 -0.8
v 0.8 1.6 -0.8

# faces
f 3/2/1 2/2/1 1/2/1
f 4/2/1 2/2/1 3/2/1
f 5/2/1 3/2/1 1/2/1
f 8/2/1 2/2/1 4/2/1
f 9/2/1 6/2/1 5/2/1
f 10/2/1 8/2/1 7/2/1
f 11/2/1 9/2/1 5/2/1
f 11/2/1 10/2/1 9/2/1
f 11/2/1 5/2/1 1/2/1
f 12/2/1 8/2/1 10/2/1
f 12/2/1 10/2/1 11/2/1
f 12/2/1 2/2/1 8/2/1
f 13/2/2 14/2/2 15/2/2
f 15/2/2 14/2/2 16/2/2
f 13/2/2 15/2/2 17/2/2
f 16/2/2 14/2/2 20/2/2
f 17/2/2 18/2/2 21/2/2
f 19/2/2 20/2/2 22/2/2
f 17/2/2 21/2/2 23/2/2
f 21/2/2 22/2/2 23/2/2
f 13/2/2 17/2/2 23/2/2
f 22/2/2 20/2/2 24/2/2
f 23/2/2 22/2/2 24/2/2
f 20/2/2 14/2/2 24/2/2
f 27/2/3 26/2/3 25/2/3
f 28/2/3 26/2/3 27/2/3
f 31/2/3 30/2/3 29/2/3
f 32/2/3 30/2/3 31/2/3
f 33/1/3 32/1/3 31/1/3
f 34/1/3 32/1/3 33/1/3
f 35/2/3 34/2/3 33/2/3
f 36/2/3 34/2/3 35/2/3
f 39/2/3 38/2/3 37/2/3
f 40/2/3 38/2/3 39/2/3
f 41/1/3 40/1/3 39/1/3
f 42/1/3 40/1/3 41/1/3
f 43/2/3 42/2/3 41/2/3
f 44/2/3 42/2/3 43/2/3
f 45/2/4 46/2/4 47/2/4
f 47/2/4 46/2/4 48/2/4
f 47/1/4 48/1/4 49/1/4
f 49/1/4 48/1/4 50/1/4
f 49/2/4 50/2/4 51/2/4
f 51/2/4 50/2/4 52/2/4
f 53/2/4 54/2/4 55/2/4
f 55/2/4 54/2/4 56/2/4
f 55/1/4 56/1/4 57/1/4
f 57/1/4 56/1/4 58/1/4
f 57/2/4 58/2/4 59/2/4
f 59/2/4 58/2/4 60/2/4
f 61/2/4 62/2/4 63/2/4
f 63/2/4 62/2/4 64/2/4
f 67/2/5 66/2/5 65/2/5
f 68/2/5 66/2/5 67/2/5
f 73/2/5 70/2/5 69/2/5
f 74/1/5 71/1/5 70/1/5
f 74/2/5 70/2/5 73/2/5
f 75/2/5 72/2/5 71/2/5
f 75/1/5 71/1/5 74/1/5
f 76/2/5 72/2/5 75/2/5
f 81/2/5 78/2/5 77/2/5
f 82/1/5 79/1/5 78/1/5
f 82/2/5 78/2/5 81/2/5
f 83/2/5 80/2/5 79/2/5
f 83/1/5 79/1/5 82/1/5
f 84/2/5 80/2/5 83/2/5
f 89/2/5 86/2/5 85/2/5
f 90/1/5 87/1/5 86/1/5
f 90/2/5 86/2/5 89/2/5
f 91/2/5 88/2/5 87/2/5
f 91/1/5 87/1/5 90/1/5
f 92/2/5 88/2/5 91/2/5
f 93/2/6 94/2/6 97/2/6
f 95/2/6 96/2/6 97/2/6
f 94/2/6 95/2/6 97/2/6
f 97/2/6 96/2/6 98/2/6
f 98/2/6 96/2/6 99/2/6
f 99/2/6 96/2/6 100/2/6
f 101/2/6 102/2/6 103/2/6
f 103/2/6 102/2/6 104/2/6
