# MagicaVoxel @ Ephtracy

# group
o 

# material
mtllib Transit.mtl
usemtl palette

# normals
vn -1 0 0
vn 1 0 0
vn 0 0 1
vn 0 0 -1
vn 0 -1 0
vn 0 1 0

# texcoords
vt 0.673828 0.5
vt 0.982422 0.5

# verts
v -0.8 0 0.8
v -0.8 0 -0.8
v -0.8 0.1 0.3
v -0.8 0.1 -0.3
v -0.8 0.5 0.3
v -0.8 0.5 0.2
v -0.8 0.5 -0.2
v -0.8 0.5 -0.3
v -0.8 0.6 0.2
v -0.8 0.6 -0.2
v -0.8 1.6 0.8
v -0.8 1.6 -0.8
v 0 0.6 0.1
v 0 0.6 -0.1
v 0 0.7 0.1
v 0 0.7 -0.1
v 0.1 0.6 0.2
v 0.1 0.6 0.1
v 0.1 0.6 -0.1
v 0.1 0.6 -0.2
v 0.1 0.7 0.2
v 0.1 0.7 0.1
v 0.1 0.7 0
v 0.1 0.7 -0.1
v 0.1 0.7 -0.2
v 0.1 0.8 0.1
v 0.1 0.8 0
v 0.2 0.5 0.3
v 0.2 0.5 0.2
v 0.2 0.5 -0.2
v 0.2 0.5 -0.3
v 0.2 0.7 0.3
v 0.2 0.7 0.2
v 0.2 0.7 0.1
v 0.2 0.7 0
v 0.2 0.7 -0.1
v 0.2 0.7 -0.2
v 0.2 0.7 -0.3
v 0.2 0.8 0.2
v 0.2 0.8 0.1
v 0.2 0.8 0
v 0.2 0.8 -0.1
v 0.5 0.8 0.1
v 0.5 0.8 0
v 0.5 0.9 0.1
v 0.5 0.9 0
v 0.6 0.7 -0.1
v 0.6 0.7 -0.2
v 0.6 0.8 0
v 0.6 0.8 -0.1
v 0.6 0.8 -0.2
v 0.6 0.9 0
v 0.6 0.9 -0.1
v 0.8 0 0.8
v 0.8 0 -0.8
v 0.8 0.1 0.3
v 0.8 0.1 -0.3
v 0.8 0.7 0.3
v 0.8 0.7 0.2
v 0.8 0.7 -0.2
v 0.8 0.7 -0.3
v 0.8 0.8 0.2
v 0.8 0.8 0.1
v 0.8 0.8 -0.1
v 0.8 0.8 -0.2
v 0.8 0.9 0.1
v 0.8 0.9 -0.1
v 0.8 1.6 0.8
v 0.8 1.6 -0.8
v -0.8 0 0.8
v -0.8 1.6 0.8
v 0.8 0 0.8
v 0.8 1.6 0.8
v 0.1 0.7 0
v 0.1 0.8 0
v 0.2 0.7 0
v 0.2 0.8 0
v 0.5 0.8 0
v 0.5 0.9 0
v 0.6 0.8 0
v 0.6 0.9 0
v 0 0.6 -0.1
v 0 0.7 -0.1
v 0.1 0.6 -0.1
v 0.1 0.7 -0.1
v 0.2 0.7 -0.1
v 0.2 0.8 -0.1
v 0.6 0.7 -0.1
v 0.6 0.8 -0.1
v 0.6 0.9 -0.1
v 0.8 0.8 -0.1
v 0.8 0.9 -0.1
v -0.8 0.5 -0.2
v -0.8 0.6 -0.2
v -0.7 0.5 -0.2
v -0.7 0.6 -0.2
v 0.1 0.6 -0.2
v 0.1 0.7 -0.2
v 0.2 0.5 -0.2
v 0.2 0.7 -0.2
v 0.6 0.7 -0.2
v 0.6 0.8 -0.2
v 0.8 0.7 -0.2
v 0.8 0.8 -0.2
v -0.8 0.1 -0.3
v -0.8 0.5 -0.3
v -0.7 0.1 -0.3
v -0.7 0.5 -0.3
v 0.2 0.5 -0.3
v 0.2 0.7 -0.3
v 0.6 0.1 -0.3
v 0.6 0.7 -0.3
v 0.8 0.1 -0.3
v 0.8 0.7 -0.3
v -0.8 0.1 0.3
v -0.8 0.5 0.3
v -0.7 0.1 0.3
v -0.7 0.5 0.3
v 0.2 0.5 0.3
v 0.2 0.7 0.3
v 0.6 0.1 0.3
v 0.6 0.7 0.3
v 0.8 0.1 0.3
v 0.8 0.7 0.3
v -0.8 0.5 0.2
v -0.8 0.6 0.2
v -0.7 0.5 0.2
v -0.7 0.6 0.2
v 0.1 0.6 0.2
v 0.1 0.7 0.2
v 0.2 0.5 0.2
v 0.2 0.7 0.2
v 0.2 0.8 0.2
v 0.6 0.7 0.2
v 0.6 0.8 0.2
v 0.8 0.7 0.2
v 0.8 0.8 0.2
v 0 0.6 0.1
v 0 0.7 0.1
v 0.1 0.6 0.1
v 0.1 0.7 0.1
v 0.1 0.8 0.1
v 0.2 0.7 0.1
v 0.2 0.8 0.1
v 0.5 0.8 0.1
v 0.5 0.9 0.1
v 0.6 0.8 0.1
v 0.6 0.9 0.1
v 0.8 0.8 0.1
v 0.8 0.9 0.1
v -0.8 0 -0.8
v -0.8 1.6 -0.8
v 0.8 0 -0.8
v 0.8 1.6 -0.8
v -0.8 0 0.8
v 0.8 0 0.8
v -0.8 0 -0.8
v 0.8 0 -0.8
v -0.8 0.5 0.3
v -0.7 0.5 0.3
v 0.2 0.5 0.3
v -0.8 0.5 0.2
v -0.7 0.5 0.2
v 0.2 0.5 0.2
v -0.8 0.5 -0.2
v -0.7 0.5 -0.2
v 0.2 0.5 -0.2
v -0.8 0.5 -0.3
v -0.7 0.5 -0.3
v 0.2 0.5 -0.3
v -0.8 0.6 0.2
v -0.7 0.6 0.2
v 0.1 0.6 0.2
v 0 0.6 0.1
v 0.1 0.6 0.1
v 0 0.6 -0.1
v 0.1 0.6 -0.1
v -0.8 0.6 -0.2
v -0.7 0.6 -0.2
v 0.1 0.6 -0.2
v 0.2 0.7 0.3
v 0.6 0.7 0.3
v 0.8 0.7 0.3
v 0.1 0.7 0.2
v 0.2 0.7 0.2
v 0.6 0.7 0.2
v 0.8 0.7 0.2
v 0 0.7 0.1
v 0.1 0.7 0.1
v 0.2 0.7 0.1
v 0.1 0.7 0
v 0.2 0.7 0
v 0 0.7 -0.1
v 0.1 0.7 -0.1
v 0.2 0.7 -0.1
v 0.6 0.7 -0.1
v 0.1 0.7 -0.2
v 0.2 0.7 -0.2
v 0.6 0.7 -0.2
v 0.8 0.7 -0.2
v 0.2 0.7 -0.3
v 0.6 0.7 -0.3
v 0.8 0.7 -0.3
v 0.2 0.8 0.2
v 0.6 0.8 0.2
v 0.8 0.8 0.2
v 0.1 0.8 0.1
v 0.2 0.8 0.1
v 0.5 0.8 0.1
v 0.6 0.8 0.1
v 0.8 0.8 0.1
v 0.1 0.8 0
v 0.2 0.8 0
v 0.5 0.8 0
v 0.6 0.8 0
v 0.2 0.8 -0.1
v 0.6 0.8 -0.1
v 0.8 0.8 -0.1
v 0.6 0.8 -0.2
v 0.8 0.8 -0.2
v 0.5 0.9 0.1
v 0.6 0.9 0.1
v 0.8 0.9 0.1
v 0.5 0.9 0
v 0.6 0.9 0
v 0.6 0.9 -0.1
v 0.8 0.9 -0.1
v -0.8 0.1 0.3
v -0.7 0.1 0.3
v 0.6 0.1 0.3
v 0.8 0.1 0.3
v -0.8 0.1 -0.3
v -0.7 0.1 -0.3
v 0.6 0.1 -0.3
v 0.8 0.1 -0.3
v -0.8 1.6 0.8
v 0.8 1.6 0.8
v -0.8 1.6 -0.8
v 0.8 1.6 -0.8

# faces
f 3/2/1 2/2/1 1/2/1
f 4/2/1 2/2/1 3/2/1
f 5/2/1 3/2/1 1/2/1
f 8/2/1 2/2/1 4/2/1
f 9/2/1 6/2/1 5/2/1
f 10/2/1 8/2/1 7/2/1
f 11/2/1 9/2/1 5/2/1
f 11/2/1 10/2/1 9/2/1
f 11/2/1 5/2/1 1/2/1
f 12/2/1 8/2/1 10/2/1
f 12/2/1 10/2/1 11/2/1
f 12/2/1 2/2/1 8/2/1
f 13/1/2 14/1/2 15/1/2
f 15/1/2 14/1/2 16/1/2
f 17/1/2 18/1/2 21/1/2
f 21/1/2 18/1/2 22/1/2
f 19/1/2 20/1/2 24/1/2
f 24/1/2 20/1/2 25/1/2
f 22/1/2 23/1/2 26/1/2
f 26/1/2 23/1/2 27/1/2
f 28/1/2 29/1/2 32/1/2
f 32/1/2 29/1/2 33/1/2
f 30/1/2 31/1/2 37/1/2
f 37/1/2 31/1/2 38/1/2
f 33/1/2 34/1/2 39/1/2
f 39/1/2 34/1/2 40/1/2
f 35/1/2 36/1/2 41/1/2
f 41/1/2 36/1/2 42/1/2
f 43/1/2 44/1/2 45/1/2
f 45/1/2 44/1/2 46/1/2
f 47/1/2 48/1/2 50/1/2
f 50/1/2 48/1/2 51/1/2
f 49/1/2 50/1/2 52/1/2
f 52/1/2 50/1/2 53/1/2
f 54/2/2 55/2/2 56/2/2
f 56/2/2 55/2/2 57/2/2
f 54/2/2 56/2/2 58/2/2
f 57/2/2 55/2/2 61/2/2
f 58/2/2 59/2/2 62/2/2
f 60/2/2 61/2/2 65/2/2
f 62/2/2 63/2/2 66/2/2
f 64/2/2 65/2/2 67/2/2
f 62/2/2 66/2/2 68/2/2
f 66/2/2 67/2/2 68/2/2
f 54/2/2 58/2/2 68/2/2
f 58/2/2 62/2/2 68/2/2
f 67/2/2 65/2/2 69/2/2
f 68/2/2 67/2/2 69/2/2
f 61/2/2 55/2/2 69/2/2
f 65/2/2 61/2/2 69/2/2
f 72/2/3 71/2/3 70/2/3
f 73/2/3 71/2/3 72/2/3
f 76/1/3 75/1/3 74/1/3
f 77/1/3 75/1/3 76/1/3
f 80/1/3 79/1/3 78/1/3
f 81/1/3 79/1/3 80/1/3
f 84/1/3 83/1/3 82/1/3
f 85/1/3 83/1/3 84/1/3
f 88/1/3 87/1/3 86/1/3
f 89/1/3 87/1/3 88/1/3
f 91/2/3 90/2/3 89/2/3
f 92/2/3 90/2/3 91/2/3
f 95/2/3 94/2/3 93/2/3
f 96/2/3 94/2/3 95/2/3
f 97/1/3 96/1/3 95/1/3
f 99/1/3 97/1/3 95/1/3
f 99/1/3 98/1/3 97/1/3
f 100/1/3 98/1/3 99/1/3
f 103/2/3 102/2/3 101/2/3
f 104/2/3 102/2/3 103/2/3
f 107/2/3 106/2/3 105/2/3
f 108/2/3 106/2/3 107/2/3
f 109/1/3 108/1/3 107/1/3
f 111/1/3 109/1/3 107/1/3
f 111/1/3 110/1/3 109/1/3
f 112/1/3 110/1/3 111/1/3
f 113/2/3 112/2/3 111/2/3
f 114/2/3 112/2/3 113/2/3
f 115/2/4 116/2/4 117/2/4
f 117/2/4 116/2/4 118/2/4
f 117/1/4 118/1/4 119/1/4
f 117/1/4 119/1/4 121/1/4
f 119/1/4 120/1/4 121/1/4
f 121/1/4 120/1/4 122/1/4
f 121/2/4 122/2/4 123/2/4
f 123/2/4 122/2/4 124/2/4
f 125/2/4 126/2/4 127/2/4
f 127/2/4 126/2/4 128/2/4
f 127/1/4 128/1/4 129/1/4
f 127/1/4 129/1/4 131/1/4
f 129/1/4 130/1/4 131/1/4
f 131/1/4 130/1/4 132/1/4
f 132/1/4 133/1/4 134/1/4
f 134/1/4 133/1/4 135/1/4
f 134/2/4 135/2/4 136/2/4
f 136/2/4 135/2/4 137/2/4
f 138/1/4 139/1/4 140/1/4
f 140/1/4 139/1/4 141/1/4
f 141/1/4 142/1/4 143/1/4
f 143/1/4 142/1/4 144/1/4
f 145/1/4 146/1/4 147/1/4
f 147/1/4 146/1/4 148/1/4
f 147/2/4 148/2/4 149/2/4
f 149/2/4 148/2/4 150/2/4
f 151/2/4 152/2/4 153/2/4
f 153/2/4 152/2/4 154/2/4
f 157/2/5 156/2/5 155/2/5
f 158/2/5 156/2/5 157/2/5
f 162/2/5 160/2/5 159/2/5
f 163/1/5 161/1/5 160/1/5
f 163/2/5 160/2/5 162/2/5
f 164/1/5 161/1/5 163/1/5
f 168/2/5 166/2/5 165/2/5
f 169/1/5 167/1/5 166/1/5
f 169/2/5 166/2/5 168/2/5
f 170/1/5 167/1/5 169/1/5
f 174/1/5 173/1/5 172/1/5
f 175/1/5 173/1/5 174/1/5
f 176/1/5 174/1/5 172/1/5
f 178/2/5 172/2/5 171/2/5
f 179/1/5 177/1/5 176/1/5
f 179/2/5 172/2/5 178/2/5
f 179/1/5 176/1/5 172/1/5
f 180/1/5 177/1/5 179/1/5
f 185/1/5 182/1/5 181/1/5
f 186/2/5 183/2/5 182/2/5
f 186/1/5 182/1/5 185/1/5
f 187/2/5 183/2/5 186/2/5
f 189/1/5 185/1/5 184/1/5
f 190/1/5 185/1/5 189/1/5
f 191/1/5 189/1/5 188/1/5
f 193/1/5 191/1/5 188/1/5
f 193/1/5 192/1/5 191/1/5
f 194/1/5 192/1/5 193/1/5
f 195/1/5 192/1/5 194/1/5
f 197/1/5 195/1/5 194/1/5
f 197/1/5 196/1/5 195/1/5
f 198/1/5 196/1/5 197/1/5
f 199/1/5 196/1/5 198/1/5
f 201/1/5 199/1/5 198/1/5
f 202/2/5 200/2/5 199/2/5
f 202/1/5 199/1/5 201/1/5
f 203/2/5 200/2/5 202/2/5
f 208/1/5 205/1/5 204/1/5
f 209/1/5 205/1/5 208/1/5
f 210/2/5 206/2/5 205/2/5
f 210/1/5 205/1/5 209/1/5
f 211/2/5 206/2/5 210/2/5
f 212/1/5 209/1/5 208/1/5
f 212/1/5 208/1/5 207/1/5
f 213/1/5 209/1/5 212/1/5
f 214/1/5 209/1/5 213/1/5
f 216/1/5 215/1/5 214/1/5
f 216/1/5 214/1/5 213/1/5
f 217/1/5 215/1/5 216/1/5
f 219/2/5 218/2/5 217/2/5
f 220/2/5 218/2/5 219/2/5
f 224/1/5 222/1/5 221/1/5
f 225/2/5 223/2/5 222/2/5
f 225/1/5 222/1/5 224/1/5
f 226/2/5 223/2/5 225/2/5
f 227/2/5 223/2/5 226/2/5
f 228/2/6 229/2/6 232/2/6
f 230/2/6 231/2/6 232/2/6
f 229/2/6 230/2/6 232/2/6
f 232/2/6 231/2/6 233/2/6
f 233/2/6 231/2/6 234/2/6
f 234/2/6 231/2/6 235/2/6
f 236/2/6 237/2/6 238/2/6
f 238/2/6 237/2/6 239/2/6
